<?xml version="1.0" encoding="utf-8"?>
<!-- Generator: Adobe Illustrator 24.3.0, SVG Export Plug-In . SVG Version: 6.00 Build 0)  -->
<svg version="1.1"
	 id="svg8" xmlns:cc="http://creativecommons.org/ns#" xmlns:dc="http://purl.org/dc/elements/1.1/" xmlns:inkscape="http://www.inkscape.org/namespaces/inkscape" xmlns:rdf="http://www.w3.org/1999/02/22-rdf-syntax-ns#" xmlns:sodipodi="http://sodipodi.sourceforge.net/DTD/sodipodi-0.dtd" xmlns:svg="http://www.w3.org/2000/svg"
	 xmlns="http://www.w3.org/2000/svg" xmlns:xlink="http://www.w3.org/1999/xlink" x="0px" y="0px" viewBox="0 0 2078.2 614.7"
	 style="enable-background:new 0 0 2078.2 614.7;" xml:space="preserve">
<style type="text/css">
	.st0{fill:#72C0FF;}
	.st1{font-family:'ArialMT';}
	.st2{font-size:266.6668px;}
	.st3{fill:none;stroke:#6B4A00;stroke-width:10;stroke-miterlimit:15.1181;}
	.st4{fill:#6B4A00;}
	.st5{fill:#72C0FF;stroke:#FFFFFF;stroke-width:5;stroke-miterlimit:15.1181;}
	.st6{fill:#6B4A00;stroke:#FFFFFF;stroke-width:5;stroke-linecap:round;stroke-linejoin:round;stroke-miterlimit:15.1181;}
</style>
<sodipodi:namedview  bordercolor="#666666" borderopacity="1.0" fit-margin-bottom="10" fit-margin-left="10" fit-margin-right="10" fit-margin-top="10" id="base" inkscape:current-layer="layer2" inkscape:cx="890.95087" inkscape:cy="-313.0048" inkscape:document-rotation="0" inkscape:document-units="mm" inkscape:pageopacity="0.0" inkscape:pageshadow="2" inkscape:window-height="1627" inkscape:window-maximized="0" inkscape:window-width="2277" inkscape:window-x="79" inkscape:window-y="180" inkscape:zoom="0.49765735" lock-margins="true" pagecolor="#ffffff" showgrid="false" units="px">
	</sodipodi:namedview>
<g id="layer1" transform="translate(-10.663026,-47.420648)" inkscape:groupmode="layer" inkscape:label="Layer 1">
</g>
<g id="layer2" transform="translate(9.1390737,10.522291)" inkscape:groupmode="layer" inkscape:label="Head">
	<text transform="matrix(1 0 0 1 590.3199 488.3724)" class="st0 st1 st2">Shop Hound</text>
	<text transform="matrix(1 0 0 1 590.3199 488.3724)" class="st3 st1 st2">Shop Hound</text>
	
		<circle id="path833" inkscape:export-xdpi="96.042198" inkscape:export-ydpi="96.042198" class="st4" cx="282.1" cy="280.8" r="281.3">
	</circle>
	<path id="path881" sodipodi:nodetypes="ccccccscccc" class="st5" d="M450.3,214.3c19,3.7,53.1,4.9,132.8,32.8
		c19.3,9,34.3-1.8-6.2,122.9c-2.3,6.5-141.6,25.4-169.1,15.9c-14.3,43.6-12,84.5,1.8,126C271.7,525,96.4,477.4,78.8,468.6
		c-5-16.8,8.6-23.7,6-54c-4.1-46.3-7.4-112.2-3.9-141.1c-0.3-72.9,40.1-126.6,60.9-138.2c30.8-19.8,205.9-49.4,261.3-9.6
		C432.3,138.4,439.5,190.7,450.3,214.3L450.3,214.3z"/>
	<path id="path886" sodipodi:nodetypes="cscccsc" class="st6" d="M94.5,310.4c-4,21.4,1.2,41.6,96.2,125.2
		c63.3,55.8,36.6,110.1,123.6,149c44.5,5.5,136.1,25.7,125.8-41.5c-49.4-217.6-139.1-271.6-223.9-406.6
		c-13.3-2.7-69.8,13.6-82.6,25.6C105.6,188.2,103.6,278.6,94.5,310.4z"/>
</g>
<g id="layer3" transform="translate(9.1390737,10.522291)" inkscape:groupmode="layer" inkscape:label="Ear">
</g>
</svg>
